<svg width="144" height="144" viewBox="0 0 144 144" xmlns="http://www.w3.org/2000/svg">
  <rect width="144" height="144" fill="#1a1a1a"/>
  <!-- Gear icon -->
  <g transform="translate(72, 72)">
    <!-- Outer gear teeth -->
    <path d="M-8,-50 L8,-50 L10,-40 L15,-39 L22,-46 L32,-36 L25,-29 L26,-24 L36,-22 L36,-6 L26,-4 L25,-1 L32,8 L22,18 L15,11 L10,12 L8,22 L-8,22 L-10,12 L-15,11 L-22,18 L-32,8 L-25,-1 L-26,-4 L-36,-6 L-36,-22 L-26,-24 L-25,-29 L-32,-36 L-22,-46 L-15,-39 L-10,-40 Z"
          fill="#0e99e5"
          stroke="#0c7bb8"
          stroke-width="2"
          transform="scale(1.2)"/>
    <!-- Inner circle -->
    <circle cx="0" cy="-6" r="14" fill="#1a1a1a" stroke="#0e99e5" stroke-width="3"/>
  </g>
</svg>
